<svg xmlns="http://www.w3.org/2000/svg" viewBox="380 133 305 305" fill="#0A0A0A" role="img" aria-label="Biltia">
  <path d="M532.850464,331.833374 C512.906128,355.355560 493.168732,378.588867 473.532501,401.907379 C471.528595,404.287109 469.435394,405.433258 466.291565,405.358643 C458.962921,405.184692 451.622528,405.451355 444.297211,405.217255 C441.547852,405.129395 437.595978,406.945343 436.324921,403.249756 C435.023071,399.464661 435.528015,395.425232 438.595917,392.056976 C444.092194,386.022675 449.388184,379.806183 454.780365,373.676819 C471.838928,354.286255 488.833496,334.838470 506.032745,315.573456 C508.962891,312.291351 509.101074,309.996185 506.235718,306.655701 C500.953827,300.498077 496.085571,293.985596 490.886963,287.421509 C487.878082,289.847778 487.229919,292.843597 486.366272,295.600922 C483.496857,304.762268 482.291809,314.115936 483.939667,323.672546 C484.288940,325.698120 483.684174,327.248688 482.406830,328.694489 C468.068939,344.923431 453.738831,361.159271 439.384247,377.373413 C438.752045,378.087524 438.045563,378.910522 436.712982,378.549561 C435.273895,377.130554 435.818817,375.198822 435.818939,373.462067 C435.823975,301.468658 435.899139,229.475235 435.820404,157.481964 C435.815277,152.795166 437.279449,150.831543 442.046570,150.880081 C454.209778,151.003922 466.376984,150.963654 478.539673,150.787415 C482.930084,150.723785 483.243561,153.220016 483.233246,156.591782 C483.168518,177.756332 483.340942,198.922836 483.093964,220.084686 C483.035492,225.094070 484.497559,228.898666 487.607758,232.741379 C507.316071,257.091370 526.752686,281.661438 546.483032,305.993378 C549.540527,309.763947 550.053223,312.372925 546.468750,316.059753 C541.717346,320.946899 537.521118,326.373810 532.850464,331.833374 z"/>
  <path d="M500.626343,383.655609 C504.967499,378.570740 509.354614,373.960876 513.081421,368.867859 C515.652222,365.354675 518.525696,365.303406 522.209717,365.967773 C529.992432,367.371307 537.739075,367.272858 545.405579,364.900909 C563.624390,359.264160 577.303833,341.953400 578.705627,322.768585 C579.618347,310.276581 578.830750,298.069366 572.465515,286.916840 C562.520325,269.491760 547.447815,261.143982 527.369019,262.542114 C524.198059,262.762909 522.418640,261.867859 520.635742,259.597504 C514.772461,252.131073 508.891937,244.673752 502.820770,237.377029 C500.291534,234.337219 500.899170,232.729279 504.201813,230.943207 C516.407349,224.342377 529.611755,221.898605 543.220642,222.138916 C560.724915,222.447998 577.130005,226.948563 591.393616,237.611801 C610.944824,252.227905 621.957031,272.111115 625.869690,295.847595 C630.029419,321.083099 626.640930,345.273438 613.440796,367.604736 C590.786926,405.929352 540.602295,419.343323 501.853058,397.483276 C501.273102,397.156067 500.690033,396.833252 500.121918,396.486328 C493.549133,392.472595 493.487000,392.092560 498.438110,386.199463 C499.080933,385.434387 499.739441,384.682495 500.626343,383.655609 z"/>
</svg>
